<svg xmlns="http://www.w3.org/2000/svg" viewBox="0 0 96 96" role="img" aria-label="Safari">
  <defs>
    <radialGradient id="g" cx="35%" cy="24%" r="78%">
      <stop stop-color="#73d5ff"/>
      <stop offset=".56" stop-color="#0a84ff"/>
      <stop offset="1" stop-color="#0649bf"/>
    </radialGradient>
    <filter id="s" x="-20%" y="-20%" width="140%" height="140%">
      <feDropShadow dx="0" dy="8" stdDeviation="8" flood-color="#000" flood-opacity=".16"/>
    </filter>
  </defs>
  <circle cx="48" cy="48" r="43" fill="url(#g)" filter="url(#s)"/>
  <circle cx="48" cy="48" r="33" fill="none" stroke="#fff" stroke-opacity=".55" stroke-width="2"/>
  <g stroke="#fff" stroke-opacity=".62" stroke-width="1.6">
    <path d="M48 16v8M48 72v8M16 48h8M72 48h8M25.4 25.4l5.7 5.7M64.9 64.9l5.7 5.7M70.6 25.4l-5.7 5.7M31.1 64.9l-5.7 5.7"/>
  </g>
  <path d="M58.5 38.4 43.2 53.8 37.5 68 53 52.8 58.5 38.4Z" fill="#fff"/>
  <path d="M58.5 38.4 43.2 53.8 29 59.5 44.2 44Z" fill="#ff3b30"/>
  <circle cx="48" cy="48" r="4" fill="#fff"/>
</svg>
